HIERARCHY
ROOT Hips
{
	OFFSET 0.000000 0.000000 0.000000
	CHANNELS 6 Xposition Yposition Zposition Xrotation Yrotation Zrotation
	JOINT LeftUpLeg_virtual
	{
		OFFSET 0.000000 0.000000 0.000000
		CHANNELS 3 Xrotation Yrotation Zrotation
		JOINT LeftUpLeg
		{
			OFFSET 10.205400 -3.823500 0.155100
			CHANNELS 3 Xrotation Yrotation Zrotation
			JOINT LeftLeg
			{
				OFFSET 0.708757 -12.982077 0.567790
				CHANNELS 3 Xrotation Yrotation Zrotation
				JOINT LeftFoot
				{
					OFFSET -0.708756 -10.717838 -2.184338
					CHANNELS 3 Xrotation Yrotation Zrotation
					JOINT LeftToeBase
					{
						OFFSET 0.108149 -7.191104 7.560241
						CHANNELS 3 Xrotation Yrotation Zrotation
						JOINT LeftToe_End
						{
							OFFSET 0.070230 0.081724 4.490308
							CHANNELS 3 Xrotation Yrotation Zrotation
							End Site
							{
								OFFSET 0 0 0
							}
						}
					}
				}
			}
		}
	}
	JOINT RightUpLeg_virtual
	{
		OFFSET 0.000000 0.000000 0.000000
		CHANNELS 3 Xrotation Yrotation Zrotation
		JOINT RightUpLeg
		{
			OFFSET -10.205400 -3.823500 0.005500
			CHANNELS 3 Xrotation Yrotation Zrotation
			JOINT RightLeg
			{
				OFFSET -0.708756 -12.982134 0.610632
				CHANNELS 3 Xrotation Yrotation Zrotation
				JOINT RightFoot
				{
					OFFSET 0.708754 -10.717769 -1.945823
					CHANNELS 3 Xrotation Yrotation Zrotation
					JOINT RightToeBase
					{
						OFFSET -0.108140 -7.191069 7.372968
						CHANNELS 3 Xrotation Yrotation Zrotation
						JOINT RightToe_End
						{
							OFFSET -0.070227 0.081735 4.479403
							CHANNELS 3 Xrotation Yrotation Zrotation
							End Site
							{
								OFFSET 0 0 0
							}
						}
					}
				}
			}
		}
	}
	JOINT Spine_virtual
	{
		OFFSET 0.000000 0.000000 0.000000
		CHANNELS 3 Xrotation Yrotation Zrotation
		JOINT Spine
		{
			OFFSET 0.000000 6.876099 0.125700
			CHANNELS 3 Xrotation Yrotation Zrotation
			JOINT Spine1
			{
				OFFSET 0.000000 5.730043 0.104720
				CHANNELS 3 Xrotation Yrotation Zrotation
				JOINT Spine1_split
				{
					OFFSET 0.000000 5.730043 0.104720
					CHANNELS 3 Xrotation Yrotation Zrotation
					JOINT Spine2
					{
						OFFSET 0.000000 5.730043 0.104720
						CHANNELS 3 Xrotation Yrotation Zrotation
						JOINT Neck_virtual
						{
							OFFSET 0.000000 0.000000 0.000000
							CHANNELS 3 Xrotation Yrotation Zrotation
							JOINT Neck
							{
								OFFSET 0.000000 10.314075 0.188496
								CHANNELS 3 Xrotation Yrotation Zrotation
								JOINT Head
								{
									OFFSET 0.000000 7.643700 -2.377400
									CHANNELS 3 Xrotation Yrotation Zrotation
									JOINT HeadTop_End
									{
										OFFSET 0.000000 43.788605 -13.619600
										CHANNELS 3 Xrotation Yrotation Zrotation
										End Site
										{
											OFFSET 0 0 0
										}
									}
								}
							}
						}
						JOINT LeftShoulder_virtual
						{
							OFFSET 0.000000 0.000000 0.000000
							CHANNELS 3 Xrotation Yrotation Zrotation
							JOINT LeftShoulder
							{
								OFFSET 2.196100 4.412489 0.087492
								CHANNELS 3 Xrotation Yrotation Zrotation
								JOINT LeftShoulder_split
								{
									OFFSET 2.196100 4.412489 0.087492
									CHANNELS 3 Xrotation Yrotation Zrotation
									JOINT LeftArm
									{
										OFFSET 8.771219 -2.981674 -0.026999
										CHANNELS 3 Xrotation Yrotation Zrotation
										JOINT LeftForeArm
										{
											OFFSET 8.512804 0.000000 -0.000000
											CHANNELS 3 Xrotation Yrotation Zrotation
											JOINT LeftHand
											{
												OFFSET 18.484802 0.000000 -0.000000
												CHANNELS 3 Xrotation Yrotation Zrotation
												End Site
												{
													OFFSET 0 0 0
												}
											}
										}
									}
								}
							}
						}
						JOINT RightShoulder_virtual
						{
							OFFSET 0.000000 0.000000 0.000000
							CHANNELS 3 Xrotation Yrotation Zrotation
							JOINT RightShoulder
							{
								OFFSET -2.196100 4.412496 0.070690
								CHANNELS 3 Xrotation Yrotation Zrotation
								JOINT RightShoulder_split
								{
									OFFSET -2.196100 4.412496 0.070690
									CHANNELS 3 Xrotation Yrotation Zrotation
									JOINT RightArm
									{
										OFFSET -8.771282 -2.981682 -0.094208
										CHANNELS 3 Xrotation Yrotation Zrotation
										JOINT RightForeArm
										{
											OFFSET -8.494598 0.000000 0.000000
											CHANNELS 3 Xrotation Yrotation Zrotation
											JOINT RightHand
											{
												OFFSET -18.483803 0.000000 0.000001
												CHANNELS 3 Xrotation Yrotation Zrotation
												End Site
												{
													OFFSET 0 0 0
												}
											}
										}
									}
								}
							}
						}
					}
				}
			}
		}
	}
}
MOTION
Frames: 9
Frame Time: 0.03333333
0.103324 28.932659 -1.431486 0.000000 0.000000 0.000000 -14.106514 4.568834 -0.093821 -21.005335 -6.444021 19.217668 64.972939 -3.857495 -0.028816 -28.580568 1.216387 -16.232573 -0.000119 -0.000002 -0.000003 0.000000 0.000000 0.000000 -14.106514 4.568834 -0.093821 -9.659252 -7.636251 -20.800440 62.778577 4.253368 0.106010 -36.926301 -7.504138 14.529192 0.000009 -0.000001 -0.000002 0.000000 0.000000 0.000000 -14.106514 4.568834 -0.093821 20.019771 -0.127854 0.602940 6.967085 -0.338071 0.675294 0.000000 0.000000 0.000000 0.000000 0.000000 0.000000 6.967317 -0.337865 0.674353 -12.249459 -1.248218 -0.495995 -16.116726 -1.754206 -0.002254 0.000000 0.000000 0.000000 6.967317 -0.337865 0.674353 3.082219 -9.945135 -6.811316 0.000000 0.000000 0.000000 -13.959285 -7.908212 -60.295278 69.634352 -63.509121 71.597151 0.000000 0.000000 0.000000 6.967317 -0.337865 0.674353 8.709551 -2.418527 18.823115 0.000000 0.000000 0.000000 -21.494469 12.934353 56.855492 76.344221 65.516991 -70.724683 0.000000 0.000000 0.000000 
0.109172 28.929619 -1.431448 0.000000 0.000000 0.000000 -14.048659 4.613835 -0.117831 -21.156393 -6.427990 19.239495 65.043973 -3.988116 -0.026167 -28.582253 1.240157 -16.142063 -0.000125 0.000000 -0.000002 0.000000 0.000000 0.000000 -14.048659 4.613835 -0.117831 -9.691773 -7.670279 -20.790415 62.753340 4.255119 0.107037 -36.917955 -7.522162 14.541322 0.000009 -0.000001 -0.000002 0.000000 0.000000 0.000000 -14.048659 4.613835 -0.117831 20.019798 -0.128342 0.600856 6.967762 -0.333988 0.674076 0.000000 0.000000 0.000000 0.000000 0.000000 0.000000 6.967986 -0.333704 0.672075 -12.339813 -1.259016 -0.511593 -16.061070 -1.772782 0.024099 0.000000 0.000000 0.000000 6.967986 -0.333704 0.672075 3.081507 -9.932734 -6.899788 0.000000 0.000000 0.000000 -13.772152 -8.303066 -59.856588 69.210553 -63.491191 71.193664 0.000000 0.000000 0.000000 6.967986 -0.333704 0.672075 8.739789 -2.465322 18.929410 0.000000 0.000000 0.000000 -21.199620 13.256781 56.475593 76.163938 65.580321 -70.597423 0.000000 0.000000 0.000000 
0.119573 28.928951 -1.422279 0.000000 0.000000 0.000000 -14.043480 4.715595 -0.107843 -21.226208 -6.485488 19.177513 65.090910 -4.015809 -0.023868 -28.581886 1.229501 -16.093500 -0.000126 -0.000002 -0.000001 0.000000 0.000000 0.000000 -14.043480 4.715595 -0.107843 -9.586817 -7.761406 -20.833426 62.676596 4.254286 0.109840 -36.941959 -7.547477 14.586438 0.000003 -0.000001 -0.000001 0.000000 0.000000 0.000000 -14.043480 4.715595 -0.107843 20.022227 -0.129842 0.591835 6.977813 -0.325596 0.664433 0.000000 0.000000 0.000000 0.000000 0.000000 0.000000 6.978047 -0.325380 0.661027 -12.616685 -1.310840 -0.527832 -15.787572 -1.817843 0.025408 0.000000 0.000000 0.000000 6.978047 -0.325380 0.661027 3.089945 -9.968825 -6.840616 0.000000 0.000000 0.000000 -13.142236 -9.459943 -58.568647 68.458549 -63.706233 70.544680 0.000000 0.000000 0.000000 6.978047 -0.325380 0.661027 8.761131 -2.565041 18.941745 0.000000 0.000000 0.000000 -20.443552 13.957716 55.550793 76.088826 65.933817 -70.543027 0.000000 0.000000 0.000000 
0.127682 28.937756 -1.401461 0.000000 0.000000 0.000000 -14.073838 4.886129 -0.073377 -21.215543 -6.619281 19.055405 65.058583 -3.981412 -0.021663 -28.543668 1.206156 -16.081462 -0.000120 -0.000002 -0.000001 0.000000 0.000000 0.000000 -14.073838 4.886129 -0.073377 -9.317150 -7.909008 -20.867585 62.492399 4.257671 0.115588 -36.982664 -7.632911 14.628667 0.000008 0.000002 -0.000002 0.000000 0.000000 0.000000 -14.073838 4.886129 -0.073377 20.021941 -0.117087 0.584054 6.979989 -0.290167 0.652440 0.000000 0.000000 0.000000 0.000000 0.000000 0.000000 6.980287 -0.290651 0.647076 -12.655372 -1.453472 -0.540543 -15.752950 -1.939058 -0.008744 0.000000 0.000000 0.000000 6.980287 -0.290651 0.647076 3.065982 -10.097440 -6.449457 0.000000 0.000000 0.000000 -11.567996 -11.730427 -55.979438 65.753220 -64.570443 67.823013 0.000000 0.000000 0.000000 6.980287 -0.290651 0.647076 8.764863 -2.748727 18.669258 0.000000 0.000000 0.000000 -18.578799 14.943820 53.540675 75.831390 67.486804 -70.381712 0.000000 0.000000 0.000000 
0.131626 28.985081 -1.377058 0.000000 0.000000 0.000000 -14.275468 5.152375 -0.045613 -20.938141 -6.789967 18.929550 64.768532 -3.949256 -0.020786 -28.358319 1.169391 -16.059803 -0.000122 -0.000001 -0.000002 0.000000 0.000000 0.000000 -14.275468 5.152375 -0.045613 -8.622025 -8.194211 -20.790893 61.901711 4.226094 0.127127 -36.869037 -7.770255 14.658226 0.000007 0.000003 -0.000003 0.000000 0.000000 0.000000 -14.275468 5.152375 -0.045613 19.989211 -0.090880 0.590386 6.936913 -0.235936 0.669644 0.000000 0.000000 0.000000 0.000000 0.000000 0.000000 6.937384 -0.235863 0.665620 -11.466844 -1.570873 -0.513835 -15.976736 -2.044568 -0.234301 0.000000 0.000000 0.000000 6.937384 -0.235863 0.665620 2.902703 -10.588573 -5.829095 0.000000 0.000000 0.000000 -8.209357 -14.344538 -51.118140 60.161447 -67.419930 62.302472 0.000000 0.000000 0.000000 6.937384 -0.235863 0.665620 8.526242 -2.817776 17.544598 0.000000 0.000000 0.000000 -14.887931 15.974366 49.852373 73.640026 71.996724 -68.447860 0.000000 0.000000 0.000000 
0.134880 29.083942 -1.349743 0.000000 0.000000 0.000000 -14.670319 5.524021 -0.030689 -20.325999 -7.029883 18.776940 64.144813 -3.893721 -0.022796 -27.987175 1.144700 -16.030148 -0.000121 -0.000001 -0.000002 0.000000 0.000000 0.000000 -14.670319 5.524021 -0.030689 -7.424580 -8.648451 -20.578428 60.761957 4.159609 0.147319 -36.514984 -7.958951 14.674419 0.000007 -0.000001 -0.000001 0.000000 0.000000 0.000000 -14.670319 5.524021 -0.030689 19.885165 -0.073907 0.607400 6.762316 -0.208083 0.726399 0.000000 0.000000 0.000000 0.000000 0.000000 0.000000 6.762812 -0.207267 0.722387 -8.087591 -1.515194 -0.417978 -16.169498 -1.934591 -0.904638 0.000000 0.000000 0.000000 6.762812 -0.207267 0.722387 2.544749 -11.924333 -5.012360 0.000000 0.000000 0.000000 -2.210836 -15.470068 -43.103166 47.070549 -73.606927 48.903041 0.000000 0.000000 0.000000 6.762812 -0.207267 0.722387 7.952837 -2.678377 15.451693 0.000000 0.000000 0.000000 -8.812190 16.564512 44.063449 59.993882 80.820884 -55.277192 0.000000 0.000000 0.000000 
0.141826 29.221313 -1.328716 0.000000 0.000000 0.000000 -15.343827 5.867112 0.088860 -19.220055 -7.168719 18.499694 63.122976 -3.812805 -0.030849 -27.444960 1.173788 -15.950221 -0.000124 -0.000002 -0.000002 0.000000 0.000000 0.000000 -15.343827 5.867112 0.088860 -5.842544 -9.126506 -20.430124 59.335151 4.079932 0.173269 -35.999598 -8.112839 14.715468 0.000011 0.000001 -0.000001 0.000000 0.000000 0.000000 -15.343827 5.867112 0.088860 19.739959 -0.110176 0.585075 6.523789 -0.266740 0.705519 0.000000 0.000000 0.000000 0.000000 0.000000 0.000000 6.524149 -0.265468 0.701689 -1.975893 -1.172919 -0.246146 -16.073942 -1.700064 -1.336792 0.000000 0.000000 0.000000 6.524149 -0.265468 0.701689 2.323313 -14.299150 -2.361505 0.000000 0.000000 0.000000 6.130118 -14.113477 -33.140802 11.653667 -80.877732 14.006893 0.000000 0.000000 0.000000 6.524149 -0.265468 0.701689 7.070593 -1.706422 12.722726 0.000000 0.000000 0.000000 -0.042599 15.921729 36.053393 -31.250868 84.370991 33.933565 0.000000 0.000000 0.000000 
0.157623 29.372097 -1.328585 0.000000 0.000000 0.000000 -16.118669 6.082311 0.230188 -17.918740 -7.156439 18.223821 61.949666 -3.724173 -0.044197 -26.845893 1.218001 -15.826892 -0.000124 -0.000001 -0.000001 0.000000 0.000000 0.000000 -16.118669 6.082311 0.230188 -4.266914 -9.514153 -20.319094 57.846696 3.999808 0.200880 -35.329065 -8.190473 14.768003 0.000008 -0.000000 -0.000001 0.000000 0.000000 0.000000 -16.118669 6.082311 0.230188 19.614254 -0.156677 0.579193 6.323403 -0.359375 0.710414 0.000000 0.000000 0.000000 0.000000 0.000000 0.000000 6.323558 -0.358358 0.704580 5.816117 -0.692039 -0.627370 -15.471137 -1.789207 -1.169800 0.000000 0.000000 0.000000 6.323558 -0.358358 0.704580 2.348031 -16.095882 -0.102402 0.000000 0.000000 0.000000 14.210583 -11.452609 -22.185378 -41.636543 -81.910415 -37.409916 0.000000 0.000000 0.000000 6.323558 -0.358358 0.704580 6.015288 -0.457008 8.798470 0.000000 0.000000 0.000000 6.243615 13.137243 28.857320 -60.331764 79.251546 59.538301 0.000000 0.000000 0.000000 
0.184192 29.512463 -1.342396 0.000000 0.000000 0.000000 -16.310729 6.057075 0.349174 -17.239780 -6.912364 17.945555 60.820239 -3.652938 -0.060903 -26.241916 1.285621 -15.655460 -0.000122 -0.000001 -0.000002 0.000000 0.000000 0.000000 -16.310729 6.057075 0.349174 -3.700968 -9.570781 -20.329396 56.777300 3.911129 0.222072 -34.645561 -8.191015 14.837432 0.000006 -0.000000 -0.000001 0.000000 0.000000 0.000000 -16.310729 6.057075 0.349174 19.597462 -0.197186 0.597125 6.300499 -0.453084 0.738547 0.000000 0.000000 0.000000 0.000000 0.000000 0.000000 6.300515 -0.449142 0.738290 13.660336 -0.131558 -2.007427 -14.260935 -1.993177 -0.439745 0.000000 0.000000 0.000000 6.300515 -0.449142 0.738290 2.497435 -16.169477 2.638149 0.000000 0.000000 0.000000 15.827017 -8.799871 -14.201498 -66.544136 -80.190171 -60.276057 0.000000 0.000000 0.000000 6.300515 -0.449142 0.738290 5.044802 0.429332 4.193665 0.000000 0.000000 0.000000 5.301175 9.627135 24.706090 -63.079645 76.690184 61.272753 0.000000 0.000000 0.000000 
